<mxfile host="app.diagrams.net" modified="2021-07-23T12:48:21.051Z" agent="5.0 (Windows NT 10.0; Win64; x64) AppleWebKit/537.36 (KHTML, like Gecko) Chrome/91.0.4472.164 Safari/537.36" etag="EsjWuFy3MNh9zDxSgizP" version="14.8.6" type="github">
  <diagram id="i0D8qsidWvd9m9EmJh0-" name="Page-1">
    <mxGraphModel dx="2012" dy="635" grid="1" gridSize="10" guides="1" tooltips="1" connect="1" arrows="1" fold="1" page="1" pageScale="1" pageWidth="827" pageHeight="1169" math="0" shadow="0">
      <root>
        <mxCell id="0" />
        <mxCell id="1" parent="0" />
        <mxCell id="9h3MYkcRP113lQjjTYI0-11" value="" style="rounded=0;whiteSpace=wrap;html=1;fontSize=20;" vertex="1" parent="1">
          <mxGeometry x="310" y="330" width="320" height="290" as="geometry" />
        </mxCell>
        <mxCell id="9h3MYkcRP113lQjjTYI0-10" value="" style="rounded=0;whiteSpace=wrap;html=1;fontSize=20;" vertex="1" parent="1">
          <mxGeometry x="250" y="60" width="420" height="570" as="geometry" />
        </mxCell>
        <mxCell id="9h3MYkcRP113lQjjTYI0-1" value="配置文件" style="rounded=0;whiteSpace=wrap;html=1;" vertex="1" parent="1">
          <mxGeometry x="320" y="130" width="280" height="60" as="geometry" />
        </mxCell>
        <mxCell id="9h3MYkcRP113lQjjTYI0-2" value="L2CAP" style="rounded=0;whiteSpace=wrap;html=1;" vertex="1" parent="1">
          <mxGeometry x="320" y="270" width="130" height="60" as="geometry" />
        </mxCell>
        <mxCell id="9h3MYkcRP113lQjjTYI0-3" value="SCO" style="rounded=0;whiteSpace=wrap;html=1;" vertex="1" parent="1">
          <mxGeometry x="470" y="270" width="130" height="60" as="geometry" />
        </mxCell>
        <mxCell id="9h3MYkcRP113lQjjTYI0-4" value="RFCOMM/BNEP/SDP" style="rounded=0;whiteSpace=wrap;html=1;" vertex="1" parent="1">
          <mxGeometry x="320" y="200" width="280" height="60" as="geometry" />
        </mxCell>
        <mxCell id="9h3MYkcRP113lQjjTYI0-5" value="主机控制器接口（HCI）" style="rounded=0;whiteSpace=wrap;html=1;" vertex="1" parent="1">
          <mxGeometry x="320" y="340" width="280" height="60" as="geometry" />
        </mxCell>
        <mxCell id="9h3MYkcRP113lQjjTYI0-6" value="链路管理协议（LMP）" style="rounded=0;whiteSpace=wrap;html=1;" vertex="1" parent="1">
          <mxGeometry x="320" y="410" width="280" height="60" as="geometry" />
        </mxCell>
        <mxCell id="9h3MYkcRP113lQjjTYI0-7" value="链路控制器&lt;br&gt;" style="rounded=0;whiteSpace=wrap;html=1;" vertex="1" parent="1">
          <mxGeometry x="320" y="480" width="280" height="60" as="geometry" />
        </mxCell>
        <mxCell id="9h3MYkcRP113lQjjTYI0-8" value="射频（RF）" style="rounded=0;whiteSpace=wrap;html=1;" vertex="1" parent="1">
          <mxGeometry x="320" y="550" width="280" height="60" as="geometry" />
        </mxCell>
        <mxCell id="9h3MYkcRP113lQjjTYI0-9" value="&lt;b style=&quot;font-size: 20px;&quot;&gt;蓝牙栈&lt;/b&gt;" style="text;html=1;strokeColor=none;fillColor=none;align=left;verticalAlign=middle;whiteSpace=wrap;rounded=0;fontSize=20;" vertex="1" parent="1">
          <mxGeometry x="414" y="70" width="90" height="40" as="geometry" />
        </mxCell>
        <mxCell id="9h3MYkcRP113lQjjTYI0-13" value="&lt;font style=&quot;font-size: 11px&quot;&gt;最下面3层他们是在硬件或固件中实现&lt;br&gt;&lt;br&gt;HCI（Host&amp;nbsp;Controller&amp;nbsp;Interface，HCI），规定主机如何与本地蓝牙设备交互和通信。&lt;br&gt;&lt;br&gt;L2CAP（Logical&amp;nbsp;Link&amp;nbsp;Control&amp;nbsp;And&amp;nbsp;Adaptation&amp;nbsp;Protocol，逻辑链路控制和适配协议）：提供接收来自其他蓝牙设备的数据包以及其他蓝牙设备发送数据包的功能。类似UDP，应用程序可将其作用基于消息不可靠数据传输协议。在用户空间我们可以通过BSD套接字API来访问L2CAP。&lt;br&gt;&lt;br&gt;BNEP：蓝牙网络封装协议。&lt;br&gt;&lt;br&gt;RFCOMM：射频通信协议（基于流的可靠协议），只能在30个端口上运行，RFCOMM用于模拟端口通信以及发送非成帧数据。&lt;br&gt;&lt;br&gt;SDP：服务发现协议。&lt;br&gt;&lt;br&gt;SCO（同步面向连接），用于发送音频。&lt;br&gt;&lt;br&gt;配置文件：&lt;br&gt;FTP：操纵和传输另一个系统的对象存储区（文件系统）中的对象（文件和文件夹）&lt;br&gt;HDP：人机接口设备配置文件（鼠标和键盘等设备提供支持）&lt;br&gt;个域网配置（支持通过蓝牙链路联网）&lt;br&gt;耳机配置文件：用于手机的蓝牙耳机提供支持&lt;br&gt;HCI设备和连接管理器、调试器、配置文件&lt;br&gt;&lt;/font&gt;" style="text;html=1;strokeColor=none;fillColor=none;align=left;verticalAlign=top;whiteSpace=wrap;rounded=0;fontSize=20;" vertex="1" parent="1">
          <mxGeometry x="-40" y="60" width="270" height="600" as="geometry" />
        </mxCell>
      </root>
    </mxGraphModel>
  </diagram>
</mxfile>
